<svg width="24" height="24" viewBox="0 0 24 24" fill="none" xmlns="http://www.w3.org/2000/svg">
<mask id="mask0_2199_810" style="mask-type:alpha" maskUnits="userSpaceOnUse" x="0" y="0" width="24" height="24">
<rect width="24" height="24" fill="#D9D9D9"/>
</mask>
<g mask="url(#mask0_2199_810)">
<path d="M16.45 20.825L14.85 19.65L16.375 17.525L13.9 16.725L14.5 14.8L17 15.625V13H19V15.625L21.5 14.8L22.1 16.725L19.625 17.525L21.15 19.65L19.55 20.825L18 18.7L16.45 20.825ZM5 21C4.45 21 3.97917 20.8042 3.5875 20.4125C3.19583 20.0208 3 19.55 3 19V5C3 4.45 3.19583 3.97917 3.5875 3.5875C3.97917 3.19583 4.45 3 5 3H19C19.55 3 20.0208 3.19583 20.4125 3.5875C20.8042 3.97917 21 4.45 21 5V10.65C20.6833 10.5 20.3583 10.3792 20.025 10.2875C19.6917 10.1958 19.35 10.125 19 10.075V5H5V14H9.2C9.35 14.45 9.6 14.8417 9.95 15.175C10.3 15.5083 10.6917 15.7417 11.125 15.875C11.075 16.2083 11.0417 16.5458 11.025 16.8875C11.0083 17.2292 11.025 17.5667 11.075 17.9C10.475 17.7833 9.9125 17.5625 9.3875 17.2375C8.8625 16.9125 8.4 16.5 8 16H5V19H11.325C11.4417 19.3667 11.575 19.7167 11.725 20.05C11.875 20.3833 12.0583 20.7 12.275 21H5ZM7 8.75H17V6.75H7V8.75ZM7 12.25H12.925C13.375 11.7667 13.8792 11.3583 14.4375 11.025C14.9958 10.6917 15.6 10.4333 16.25 10.25H7V12.25Z" fill="white"/>
</g>
</svg>
