<svg width="56" height="56" viewBox="0 0 56 56" fill="none" xmlns="http://www.w3.org/2000/svg">
<path d="M23.3327 41.9998C22.0493 41.9998 20.9507 41.5429 20.0368 40.629C19.123 39.7151 18.666 38.6165 18.666 37.3332V34.4165C16.4493 32.8998 14.7285 30.9554 13.5035 28.5832C12.2785 26.2109 11.666 23.6832 11.666 20.9998C11.666 16.4498 13.2507 12.5901 16.4202 9.42067C19.5896 6.25123 23.4493 4.6665 27.9993 4.6665C32.5494 4.6665 36.4091 6.25123 39.5785 9.42067C42.748 12.5901 44.3327 16.4498 44.3327 20.9998C44.3327 23.6832 43.7202 26.2012 42.4952 28.554C41.2702 30.9068 39.5494 32.8609 37.3327 34.4165V37.3332C37.3327 38.6165 36.8757 39.7151 35.9619 40.629C35.048 41.5429 33.9494 41.9998 32.666 41.9998H23.3327ZM23.3327 37.3332H32.666V31.9665L34.6494 30.5665C36.2438 29.4776 37.4785 28.0873 38.3535 26.3957C39.2285 24.704 39.666 22.9054 39.666 20.9998C39.666 17.7721 38.5285 15.0207 36.2535 12.7457C33.9785 10.4707 31.2271 9.33317 27.9993 9.33317C24.7716 9.33317 22.0202 10.4707 19.7452 12.7457C17.4702 15.0207 16.3327 17.7721 16.3327 20.9998C16.3327 22.9054 16.7702 24.704 17.6452 26.3957C18.5202 28.0873 19.7549 29.4776 21.3493 30.5665L23.3327 31.9665V37.3332ZM23.3327 51.3332C22.6716 51.3332 22.1174 51.1096 21.6702 50.6623C21.223 50.2151 20.9993 49.6609 20.9993 48.9998V46.6665H34.9994V48.9998C34.9994 49.6609 34.7757 50.2151 34.3285 50.6623C33.8813 51.1096 33.3271 51.3332 32.666 51.3332H23.3327Z" fill="#222836"/>
</svg>
