<svg width="34" height="48" viewBox="0 0 34 48" fill="none" xmlns="http://www.w3.org/2000/svg">
<path d="M12.3327 38.0001C11.0493 38.0001 9.95074 37.5431 9.03685 36.6292C8.12296 35.7154 7.66602 34.6167 7.66602 33.3334V30.4167C5.44935 28.9001 3.72852 26.9556 2.50352 24.5834C1.27852 22.2112 0.666016 19.6834 0.666016 17.0001C0.666016 12.4501 2.25074 8.59036 5.42018 5.42091C8.58963 2.25147 12.4493 0.666748 16.9993 0.666748C21.5494 0.666748 25.4091 2.25147 28.5785 5.42091C31.748 8.59036 33.3327 12.4501 33.3327 17.0001C33.3327 19.6834 32.7202 22.2015 31.4952 24.5542C30.2702 26.907 28.5494 28.8612 26.3327 30.4167V33.3334C26.3327 34.6167 25.8757 35.7154 24.9619 36.6292C24.048 37.5431 22.9494 38.0001 21.666 38.0001H12.3327ZM12.3327 33.3334H21.666V27.9667L23.6494 26.5667C25.2438 25.4779 26.4785 24.0876 27.3535 22.3959C28.2285 20.7042 28.666 18.9056 28.666 17.0001C28.666 13.7723 27.5285 11.0209 25.2535 8.74591C22.9785 6.47091 20.2271 5.33341 16.9993 5.33341C13.7716 5.33341 11.0202 6.47091 8.74518 8.74591C6.47018 11.0209 5.33268 13.7723 5.33268 17.0001C5.33268 18.9056 5.77018 20.7042 6.64518 22.3959C7.52018 24.0876 8.7549 25.4779 10.3493 26.5667L12.3327 27.9667V33.3334ZM12.3327 47.3334C11.6716 47.3334 11.1174 47.1098 10.6702 46.6626C10.223 46.2154 9.99935 45.6612 9.99935 45.0001V42.6667H23.9994V45.0001C23.9994 45.6612 23.7757 46.2154 23.3285 46.6626C22.8813 47.1098 22.3271 47.3334 21.666 47.3334H12.3327Z" fill="#1A73E8"/>
</svg>
