<svg width="21" height="17" viewBox="0 0 21 17" fill="none" xmlns="http://www.w3.org/2000/svg">
<path d="M7 17C5.05 17 3.39583 16.3208 2.0375 14.9625C0.679167 13.6042 0 11.95 0 10C0 8.21667 0.5875 6.6625 1.7625 5.3375C2.9375 4.0125 4.40833 3.25 6.175 3.05L4.6 1.4L6 0L10 4L6 8L4.6 6.575L6.075 5.1C4.89167 5.33333 3.91667 5.90833 3.15 6.825C2.38333 7.74167 2 8.8 2 10C2 11.3833 2.4875 12.5625 3.4625 13.5375C4.4375 14.5125 5.61667 15 7 15H10V17H7ZM12 8V1H21V8H12ZM12 17V10H21V17H12ZM14 15H19V12H14V15Z" fill="white"/>
</svg>
