<svg width="18" height="18" viewBox="0 0 18 18" fill="none" xmlns="http://www.w3.org/2000/svg">
<path d="M5.4 18C3.88333 18 2.60417 17.4792 1.5625 16.4375C0.520833 15.3958 0 14.1167 0 12.6C0 11.9667 0.108333 11.35 0.325 10.75C0.541667 10.15 0.85 9.60833 1.25 9.125L4.8 4.85L2.375 0H15.625L13.2 4.85L16.75 9.125C17.15 9.60833 17.4583 10.15 17.675 10.75C17.8917 11.35 18 11.9667 18 12.6C18 14.1167 17.475 15.3958 16.425 16.4375C15.375 17.4792 14.1 18 12.6 18H5.4ZM9 13C8.45 13 7.97917 12.8042 7.5875 12.4125C7.19583 12.0208 7 11.55 7 11C7 10.45 7.19583 9.97917 7.5875 9.5875C7.97917 9.19583 8.45 9 9 9C9.55 9 10.0208 9.19583 10.4125 9.5875C10.8042 9.97917 11 10.45 11 11C11 11.55 10.8042 12.0208 10.4125 12.4125C10.0208 12.8042 9.55 13 9 13ZM6.625 4H11.375L12.375 2H5.625L6.625 4ZM5.4 16H12.6C13.55 16 14.3542 15.6708 15.0125 15.0125C15.6708 14.3542 16 13.55 16 12.6C16 12.2 15.9292 11.8125 15.7875 11.4375C15.6458 11.0625 15.45 10.725 15.2 10.425L11.525 6H6.5L2.8 10.4C2.55 10.7 2.35417 11.0417 2.2125 11.425C2.07083 11.8083 2 12.2 2 12.6C2 13.55 2.32917 14.3542 2.9875 15.0125C3.64583 15.6708 4.45 16 5.4 16Z" fill="white"/>
</svg>
