<svg width="38" height="48" viewBox="0 0 38 48" fill="none" xmlns="http://www.w3.org/2000/svg">
<path d="M19.0007 30.9998C28.5198 30.9998 36.3747 38.1251 37.523 47.3332H0.478516C1.6267 38.1251 9.48164 30.9998 19.0007 30.9998ZM14.7702 36.3187C11.425 37.3792 8.60755 39.6642 6.87071 42.6665H19.0007L14.7702 36.3187ZM23.2322 36.3191L19.0007 42.6665H31.1308C29.3941 39.6647 26.5771 37.3796 23.2322 36.3191ZM33.0008 0.666504V14.6665C33.0008 22.3985 26.7327 28.6665 19.0007 28.6665C11.2688 28.6665 5.00077 22.3985 5.00077 14.6665V0.666504H33.0008ZM9.66744 14.6665C9.66744 19.8211 13.8461 23.9998 19.0007 23.9998C24.1555 23.9998 28.3341 19.8211 28.3341 14.6665H9.66744ZM28.3341 5.33317H9.66744L9.66718 9.99984H28.3338L28.3341 5.33317Z" fill="white"/>
</svg>
