<svg width="36" height="51" viewBox="0 0 36 51" fill="none" xmlns="http://www.w3.org/2000/svg">
<path d="M32.85 23.6183C36.4949 27.2632 36.4949 33.1726 32.85 36.8175L19.6508 50.0169C18.7397 50.9281 17.2622 50.9281 16.351 50.0169L3.15164 36.8175C-0.493256 33.1726 -0.493256 27.2632 3.15164 23.6183C6.79652 19.9734 12.7061 19.9734 16.351 23.6183L17.9993 25.2666L19.6508 23.6183C23.2957 19.9734 29.2051 19.9734 32.85 23.6183ZM6.45147 26.9181C4.62902 28.7404 4.62902 31.6954 6.45147 33.5177L18.0009 45.0672L29.5502 33.5177C31.3728 31.6954 31.3728 28.7404 29.5502 26.9181C27.7279 25.0955 24.773 25.0955 22.9474 26.9214L17.996 31.8629L13.0511 26.9181C11.2287 25.0955 8.27392 25.0955 6.45147 26.9181ZM18.0009 0.333496C23.1555 0.333496 27.3343 4.51217 27.3343 9.66683C27.3343 14.8215 23.1555 19.0002 18.0009 19.0002C12.8462 19.0002 8.66755 14.8215 8.66755 9.66683C8.66755 4.51217 12.8462 0.333496 18.0009 0.333496ZM18.0009 5.00016C15.4235 5.00016 13.3343 7.0895 13.3343 9.66683C13.3343 12.2442 15.4235 14.3335 18.0009 14.3335C20.5781 14.3335 22.6676 12.2442 22.6676 9.66683C22.6676 7.0895 20.5781 5.00016 18.0009 5.00016Z" fill="white"/>
</svg>
