<svg width="48" height="38" viewBox="0 0 48 38" fill="none" xmlns="http://www.w3.org/2000/svg">
<path d="M20.3846 27.1666C21.318 28.0999 22.5235 28.5569 24.0013 28.5374C25.4791 28.518 26.568 27.9832 27.268 26.9333L40.3346 7.33325L20.7346 20.3999C19.6846 21.0999 19.1305 22.1694 19.0721 23.6082C19.0138 25.0471 19.4513 26.2332 20.3846 27.1666ZM24.0013 0.333252C26.2957 0.333252 28.5027 0.654085 30.6221 1.29575C32.7416 1.93742 34.7346 2.89992 36.6013 4.18325L32.168 6.98325C30.8846 6.32214 29.5527 5.82631 28.1721 5.49575C26.7916 5.1652 25.4013 4.99992 24.0013 4.99992C18.8291 4.99992 14.4249 6.81797 10.7888 10.4541C7.15269 14.0902 5.33464 18.4944 5.33464 23.6666C5.33464 25.2999 5.55825 26.9138 6.00547 28.5083C6.45269 30.1027 7.08464 31.5999 7.9013 32.9999H40.1013C40.9958 31.5221 41.6471 29.986 42.0555 28.3916C42.4638 26.7971 42.668 25.1444 42.668 23.4333C42.668 22.0333 42.5027 20.6721 42.1721 19.3499C41.8416 18.0277 41.3457 16.7444 40.6846 15.4999L43.4846 11.0666C44.6513 12.8944 45.5749 14.8388 46.2555 16.8999C46.936 18.961 47.2957 21.0999 47.3346 23.3166C47.3735 25.5333 47.1208 27.6527 46.5763 29.6749C46.0319 31.6971 45.2346 33.6221 44.1846 35.4499C43.7569 36.1499 43.1735 36.6944 42.4346 37.0832C41.6958 37.4721 40.918 37.6666 40.1013 37.6666H7.9013C7.08464 37.6666 6.30686 37.4721 5.56797 37.0832C4.82908 36.6944 4.24575 36.1499 3.81797 35.4499C2.80686 33.6999 2.02908 31.843 1.48464 29.8791C0.940191 27.9152 0.667969 25.8444 0.667969 23.6666C0.667969 20.4388 1.28047 17.4152 2.50547 14.5958C3.73047 11.7763 5.40269 9.30686 7.52214 7.18742C9.64158 5.06797 12.1207 3.39575 14.9596 2.17075C17.7985 0.945752 20.8124 0.333252 24.0013 0.333252Z" fill="#1A73E8"/>
</svg>
