<svg width="56" height="56" viewBox="0 0 56 56" fill="none" xmlns="http://www.w3.org/2000/svg">
<path d="M24.3846 36.1666C25.318 37.0999 26.5235 37.5569 28.0013 37.5374C29.4791 37.518 30.568 36.9832 31.268 35.9333L44.3346 16.3333L24.7346 29.3999C23.6846 30.0999 23.1305 31.1694 23.0721 32.6082C23.0138 34.0471 23.4513 35.2332 24.3846 36.1666ZM28.0013 9.33325C30.2957 9.33325 32.5027 9.65409 34.6221 10.2958C36.7416 10.9374 38.7346 11.8999 40.6013 13.1833L36.168 15.9833C34.8846 15.3221 33.5527 14.8263 32.1721 14.4958C30.7916 14.1652 29.4013 13.9999 28.0013 13.9999C22.8291 13.9999 18.4249 15.818 14.7888 19.4541C11.1527 23.0902 9.33464 27.4944 9.33464 32.6666C9.33464 34.2999 9.55825 35.9138 10.0055 37.5083C10.4527 39.1027 11.0846 40.5999 11.9013 41.9999H44.1013C44.9958 40.5221 45.6471 38.986 46.0555 37.3916C46.4638 35.7971 46.668 34.1444 46.668 32.4333C46.668 31.0333 46.5027 29.6721 46.1721 28.3499C45.8416 27.0277 45.3457 25.7444 44.6846 24.4999L47.4846 20.0666C48.6513 21.8944 49.5749 23.8388 50.2555 25.8999C50.936 27.961 51.2957 30.0999 51.3346 32.3166C51.3735 34.5333 51.1208 36.6527 50.5763 38.6749C50.0319 40.6971 49.2346 42.6221 48.1846 44.4499C47.7569 45.1499 47.1735 45.6944 46.4346 46.0832C45.6958 46.4721 44.918 46.6666 44.1013 46.6666H11.9013C11.0846 46.6666 10.3069 46.4721 9.56797 46.0832C8.82908 45.6944 8.24575 45.1499 7.81797 44.4499C6.80686 42.6999 6.02908 40.843 5.48464 38.8791C4.94019 36.9152 4.66797 34.8444 4.66797 32.6666C4.66797 29.4388 5.28047 26.4152 6.50547 23.5958C7.73047 20.7763 9.40269 18.3069 11.5221 16.1874C13.6416 14.068 16.1207 12.3958 18.9596 11.1708C21.7985 9.94575 24.8124 9.33325 28.0013 9.33325Z" fill="#E3E3E3"/>
</svg>
