<svg width="30" height="28" viewBox="0 0 30 28" fill="none" xmlns="http://www.w3.org/2000/svg">
<path d="M10.4663 28L7.93301 23.7333L3.13301 22.6667L3.59967 17.7333L0.333008 14L3.59967 10.2667L3.13301 5.33333L7.93301 4.26667L10.4663 0L14.9997 1.93333L19.533 0L22.0663 4.26667L26.8663 5.33333L26.3997 10.2667L29.6663 14L26.3997 17.7333L26.8663 22.6667L22.0663 23.7333L19.533 28L14.9997 26.0667L10.4663 28ZM11.5997 24.6L14.9997 23.1333L18.4663 24.6L20.333 21.4L23.9997 20.5333L23.6663 16.8L26.133 14L23.6663 11.1333L23.9997 7.4L20.333 6.6L18.3997 3.4L14.9997 4.86667L11.533 3.4L9.66634 6.6L5.99967 7.4L6.33301 11.1333L3.86634 14L6.33301 16.8L5.99967 20.6L9.66634 21.4L11.5997 24.6ZM13.5997 18.7333L21.133 11.2L19.2663 9.26667L13.5997 14.9333L10.733 12.1333L8.86634 14L13.5997 18.7333Z" fill="#1A73E8"/>
</svg>
