<svg width="28" height="22" viewBox="0 0 28 22" fill="none" xmlns="http://www.w3.org/2000/svg">
<path d="M11.9337 15.6663C12.467 16.1997 13.1559 16.4608 14.0003 16.4497C14.8448 16.4386 15.467 16.133 15.867 15.533L23.3337 4.33301L12.1337 11.7997C11.5337 12.1997 11.217 12.8108 11.1837 13.633C11.1503 14.4552 11.4003 15.133 11.9337 15.6663ZM14.0003 0.333008C15.3114 0.333008 16.5725 0.516341 17.7837 0.883008C18.9948 1.24967 20.1337 1.79967 21.2003 2.53301L18.667 4.13301C17.9337 3.75523 17.1725 3.4719 16.3837 3.28301C15.5948 3.09412 14.8003 2.99967 14.0003 2.99967C11.0448 2.99967 8.5281 4.03856 6.45033 6.11634C4.37255 8.19412 3.33366 10.7108 3.33366 13.6663C3.33366 14.5997 3.46144 15.5219 3.71699 16.433C3.97255 17.3441 4.33366 18.1997 4.80033 18.9997H23.2003C23.7114 18.1552 24.0837 17.2775 24.317 16.3663C24.5503 15.4552 24.667 14.5108 24.667 13.533C24.667 12.733 24.5725 11.9552 24.3837 11.1997C24.1948 10.4441 23.9114 9.71079 23.5337 8.99967L25.1337 6.46634C25.8003 7.51079 26.3281 8.6219 26.717 9.79967C27.1059 10.9775 27.3114 12.1997 27.3337 13.4663C27.3559 14.733 27.2114 15.9441 26.9003 17.0997C26.5892 18.2552 26.1337 19.3552 25.5337 20.3997C25.2892 20.7997 24.9559 21.1108 24.5337 21.333C24.1114 21.5552 23.667 21.6663 23.2003 21.6663H4.80033C4.33366 21.6663 3.88921 21.5552 3.46699 21.333C3.04477 21.1108 2.71144 20.7997 2.46699 20.3997C1.88921 19.3997 1.44477 18.3386 1.13366 17.2163C0.822548 16.0941 0.666992 14.9108 0.666992 13.6663C0.666992 11.8219 1.01699 10.0941 1.71699 8.48301C2.41699 6.8719 3.37255 5.46079 4.58366 4.24967C5.79477 3.03856 7.21144 2.08301 8.83366 1.38301C10.4559 0.683008 12.1781 0.333008 14.0003 0.333008Z" fill="#1A73E8"/>
</svg>
