<svg width="48" height="43" viewBox="0 0 48 43" fill="none" xmlns="http://www.w3.org/2000/svg">
<path d="M23.9993 43L20.616 39.9667C16.6882 36.4278 13.441 33.375 10.8743 30.8083C8.30768 28.2417 6.26602 25.9375 4.74935 23.8958C3.23268 21.8542 2.17296 19.9778 1.57018 18.2667C0.967405 16.5556 0.666016 14.8056 0.666016 13.0167C0.666016 9.36113 1.89102 6.30835 4.34102 3.85835C6.79102 1.40835 9.84379 0.18335 13.4993 0.18335C15.5216 0.18335 17.4466 0.611127 19.2743 1.46668C21.1021 2.32224 22.6771 3.52779 23.9993 5.08335C25.3216 3.52779 26.8966 2.32224 28.7243 1.46668C30.5521 0.611127 32.4771 0.18335 34.4993 0.18335C38.1549 0.18335 41.2077 1.40835 43.6577 3.85835C46.1077 6.30835 47.3327 9.36113 47.3327 13.0167C47.3327 14.8056 47.0313 16.5556 46.4285 18.2667C45.8257 19.9778 44.766 21.8542 43.2493 23.8958C41.7327 25.9375 39.691 28.2417 37.1243 30.8083C34.5577 33.375 31.3105 36.4278 27.3827 39.9667L23.9993 43ZM23.9993 36.7C27.7327 33.3556 30.8049 30.4875 33.216 28.0958C35.6271 25.7042 37.5327 23.6236 38.9327 21.8542C40.3327 20.0847 41.3049 18.5097 41.8493 17.1292C42.3938 15.7486 42.666 14.3778 42.666 13.0167C42.666 10.6833 41.8882 8.7389 40.3327 7.18335C38.7771 5.62779 36.8327 4.85002 34.4993 4.85002C32.6716 4.85002 30.9799 5.36529 29.4243 6.39585C27.8688 7.4264 26.7993 8.7389 26.216 10.3333H21.7827C21.1993 8.7389 20.1299 7.4264 18.5743 6.39585C17.0188 5.36529 15.3271 4.85002 13.4993 4.85002C11.166 4.85002 9.22157 5.62779 7.66602 7.18335C6.11046 8.7389 5.33268 10.6833 5.33268 13.0167C5.33268 14.3778 5.6049 15.7486 6.14935 17.1292C6.69379 18.5097 7.66602 20.0847 9.06602 21.8542C10.466 23.6236 12.3716 25.7042 14.7827 28.0958C17.1938 30.4875 20.266 33.3556 23.9993 36.7Z" fill="#1A73E8"/>
</svg>
