<svg width="48" height="43" viewBox="0 0 48 43" fill="none" xmlns="http://www.w3.org/2000/svg">
<path d="M23.9993 42.9998L20.616 39.9664C16.6882 36.4276 13.441 33.3748 10.8743 30.8081C8.30768 28.2414 6.26602 25.9373 4.74935 23.8956C3.23268 21.8539 2.17296 19.9776 1.57018 18.2664C0.967405 16.5553 0.666016 14.8053 0.666016 13.0164C0.666016 9.36088 1.89102 6.30811 4.34102 3.85811C6.79102 1.40811 9.84379 0.183105 13.4993 0.183105C15.5216 0.183105 17.4466 0.610883 19.2743 1.46644C21.1021 2.32199 22.6771 3.52755 23.9993 5.08311C25.3216 3.52755 26.8966 2.32199 28.7243 1.46644C30.5521 0.610883 32.4771 0.183105 34.4993 0.183105C38.1549 0.183105 41.2077 1.40811 43.6577 3.85811C46.1077 6.30811 47.3327 9.36088 47.3327 13.0164C47.3327 14.8053 47.0313 16.5553 46.4285 18.2664C45.8257 19.9776 44.766 21.8539 43.2493 23.8956C41.7327 25.9373 39.691 28.2414 37.1243 30.8081C34.5577 33.3748 31.3105 36.4276 27.3827 39.9664L23.9993 42.9998ZM23.9993 36.6998C27.7327 33.3553 30.8049 30.4873 33.216 28.0956C35.6271 25.7039 37.5327 23.6234 38.9327 21.8539C40.3327 20.0845 41.3049 18.5095 41.8493 17.1289C42.3938 15.7484 42.666 14.3776 42.666 13.0164C42.666 10.6831 41.8882 8.73866 40.3327 7.18311C38.7771 5.62755 36.8327 4.84977 34.4993 4.84977C32.6716 4.84977 30.9799 5.36505 29.4243 6.39561C27.8688 7.42616 26.7993 8.73866 26.216 10.3331H21.7827C21.1993 8.73866 20.1299 7.42616 18.5743 6.39561C17.0188 5.36505 15.3271 4.84977 13.4993 4.84977C11.166 4.84977 9.22157 5.62755 7.66602 7.18311C6.11046 8.73866 5.33268 10.6831 5.33268 13.0164C5.33268 14.3776 5.6049 15.7484 6.14935 17.1289C6.69379 18.5095 7.66602 20.0845 9.06602 21.8539C10.466 23.6234 12.3716 25.7039 14.7827 28.0956C17.1938 30.4873 20.266 33.3553 23.9993 36.6998Z" fill="#222836"/>
</svg>
