<svg width="48" height="48" viewBox="0 0 48 48" fill="none" xmlns="http://www.w3.org/2000/svg">
<path d="M19.3346 33.3334C23.2235 33.3334 26.5291 31.9723 29.2513 29.2501C31.9735 26.5279 33.3346 23.2223 33.3346 19.3334C33.3346 15.4445 31.9735 12.139 29.2513 9.41675C26.5291 6.69453 23.2235 5.33341 19.3346 5.33341C15.4457 5.33341 12.1402 6.69453 9.41797 9.41675C6.69575 12.139 5.33464 15.4445 5.33464 19.3334C5.33464 23.2223 6.69575 26.5279 9.41797 29.2501C12.1402 31.9723 15.4457 33.3334 19.3346 33.3334ZM17.0013 26.3334V10.0001H21.668V26.3334H17.0013ZM8.83463 26.3334V14.6667H13.5013V26.3334H8.83463ZM25.168 26.3334V17.0001H29.8346V26.3334H25.168ZM44.068 47.3334L30.8263 34.0917C29.2319 35.3362 27.4624 36.2987 25.518 36.9792C23.5735 37.6598 21.5124 38.0001 19.3346 38.0001C14.1235 38.0001 9.70963 36.1917 6.09297 32.5751C2.4763 28.9584 0.667969 24.5445 0.667969 19.3334C0.667969 14.1223 2.4763 9.70841 6.09297 6.09175C9.70963 2.47508 14.1235 0.666748 19.3346 0.666748C24.5457 0.666748 28.9596 2.47508 32.5763 6.09175C36.193 9.70841 38.0013 14.1223 38.0013 19.3334C38.0013 21.5112 37.661 23.5723 36.9805 25.5167C36.2999 27.4612 35.3374 29.2306 34.093 30.8251L47.3346 44.0667L44.068 47.3334Z" fill="#1A73E8"/>
</svg>
