<svg width="56" height="56" viewBox="0 0 56 56" fill="none" xmlns="http://www.w3.org/2000/svg">
<path d="M23.3346 37.3334C27.2235 37.3334 30.5291 35.9723 33.2513 33.2501C35.9735 30.5279 37.3346 27.2223 37.3346 23.3334C37.3346 19.4445 35.9735 16.139 33.2513 13.4167C30.5291 10.6945 27.2235 9.33341 23.3346 9.33341C19.4457 9.33341 16.1402 10.6945 13.418 13.4167C10.6957 16.139 9.33464 19.4445 9.33464 23.3334C9.33464 27.2223 10.6957 30.5279 13.418 33.2501C16.1402 35.9723 19.4457 37.3334 23.3346 37.3334ZM21.0013 30.3334V14.0001H25.668V30.3334H21.0013ZM12.8346 30.3334V18.6667H17.5013V30.3334H12.8346ZM29.168 30.3334V21.0001H33.8346V30.3334H29.168ZM48.068 51.3334L34.8263 38.0917C33.2319 39.3362 31.4624 40.2987 29.518 40.9792C27.5735 41.6598 25.5124 42.0001 23.3346 42.0001C18.1235 42.0001 13.7096 40.1917 10.093 36.5751C6.4763 32.9584 4.66797 28.5445 4.66797 23.3334C4.66797 18.1223 6.4763 13.7084 10.093 10.0917C13.7096 6.47508 18.1235 4.66675 23.3346 4.66675C28.5457 4.66675 32.9596 6.47508 36.5763 10.0917C40.193 13.7084 42.0013 18.1223 42.0013 23.3334C42.0013 25.5112 41.661 27.5723 40.9805 29.5167C40.2999 31.4612 39.3374 33.2306 38.093 34.8251L51.3346 48.0667L48.068 51.3334Z" fill="#E3E3E3"/>
</svg>
