<svg width="20" height="20" viewBox="0 0 20 20" fill="none" xmlns="http://www.w3.org/2000/svg">
<path d="M10.002 7C8.34457 7 7.00195 8.3431 7.00195 10C7.00195 11.6573 8.34507 13 10.002 13C11.6593 13 13.002 11.6569 13.002 10C13.002 8.3427 11.6589 7 10.002 7ZM10.002 5C12.7624 5 15.002 7.2371 15.002 10C15.002 12.7605 12.7649 15 10.002 15C7.24148 15 5.00195 12.7629 5.00195 10C5.00195 7.23953 7.23905 5 10.002 5ZM16.502 4.74915C16.502 5.43926 15.9412 5.99917 15.252 5.99917C14.5619 5.99917 14.002 5.4384 14.002 4.74915C14.002 4.0599 14.5627 3.5 15.252 3.5C15.9403 3.49913 16.502 4.0599 16.502 4.74915ZM10.002 2C7.52747 2 7.12415 2.00655 5.97324 2.0578C5.18912 2.09461 4.6635 2.20007 4.17513 2.38967C3.74113 2.55799 3.42806 2.75898 3.09449 3.09255C2.75964 3.4274 2.55901 3.73963 2.39137 4.17383C2.20133 4.66332 2.0959 5.18811 2.05975 5.97115C2.008 7.0752 2.00195 7.46105 2.00195 10C2.00195 12.4745 2.0085 12.8778 2.05974 14.0286C2.09657 14.8124 2.20217 15.3388 2.39131 15.826C2.56007 16.2606 2.76147 16.5744 3.09343 16.9064C3.4296 17.2421 3.74276 17.4434 4.17284 17.6094C4.66716 17.8005 5.19245 17.9061 5.97309 17.9422C7.07715 17.9939 7.463 18 10.002 18C12.4765 18 12.8798 17.9934 14.0306 17.9422C14.8127 17.9055 15.3395 17.7996 15.828 17.6106C16.2614 17.4423 16.5762 17.2402 16.9084 16.9085C17.2446 16.5718 17.4455 16.2594 17.6117 15.8283C17.8023 15.3358 17.9081 14.8098 17.9442 14.0289C17.9959 12.9248 18.002 12.5389 18.002 10C18.002 7.52552 17.9954 7.12221 17.9442 5.97137C17.9074 5.18906 17.8015 4.66149 17.6123 4.17318C17.4444 3.74038 17.2427 3.42635 16.9094 3.09255C16.574 2.75715 16.2626 2.55693 15.8281 2.38942C15.339 2.19954 14.8134 2.09396 14.0308 2.05781C12.9268 2.00605 12.5409 2 10.002 2ZM10.002 0C12.7186 0 13.0578 0.00999994 14.1245 0.0599999C15.1886 0.10917 15.9145 0.2775 16.552 0.525C17.2111 0.77917 17.7678 1.1225 18.3236 1.67833C18.8786 2.23417 19.222 2.7925 19.477 3.45C19.7236 4.08667 19.892 4.81333 19.942 5.8775C19.9895 6.94417 20.002 7.28333 20.002 10C20.002 12.7167 19.992 13.0558 19.942 14.1225C19.8928 15.1867 19.7236 15.9125 19.477 16.55C19.2228 17.2092 18.8786 17.7658 18.3236 18.3217C17.7678 18.8767 17.2086 19.22 16.552 19.475C15.9145 19.7217 15.1886 19.89 14.1245 19.94C13.0578 19.9875 12.7186 20 10.002 20C7.28528 20 6.94611 19.99 5.87945 19.94C4.81528 19.8908 4.09028 19.7217 3.45195 19.475C2.79361 19.2208 2.23611 18.8767 1.68028 18.3217C1.12445 17.7658 0.781953 17.2067 0.526953 16.55C0.279453 15.9125 0.111953 15.1867 0.0619533 14.1225C0.0144533 13.0558 0.00195312 12.7167 0.00195312 10C0.00195312 7.28333 0.0119533 6.94417 0.0619533 5.8775C0.111113 4.8125 0.279453 4.0875 0.526953 3.45C0.781113 2.79167 1.12445 2.23417 1.68028 1.67833C2.23611 1.1225 2.79445 0.78 3.45195 0.525C4.08945 0.2775 4.81445 0.11 5.87945 0.0599999C6.94611 0.0124999 7.28528 0 10.002 0Z" fill="#1A73E8"/>
</svg>
