<svg width="52" height="43" viewBox="0 0 52 43" fill="none" xmlns="http://www.w3.org/2000/svg">
<path d="M25.9987 17.0001L17.832 8.83342L25.9987 0.666748L34.1654 8.83342L25.9987 17.0001ZM0.332031 42.6667V33.3334C0.332031 32.0112 0.788976 30.9029 1.70286 30.0084C2.61675 29.114 3.71536 28.6667 4.9987 28.6667H12.6404C13.4181 28.6667 14.157 28.8612 14.857 29.2501C15.557 29.639 16.1209 30.164 16.5487 30.8251C17.6765 32.3417 19.0668 33.5279 20.7195 34.3834C22.3723 35.239 24.132 35.6667 25.9987 35.6667C27.9043 35.6667 29.6834 35.239 31.3362 34.3834C32.989 33.5279 34.3598 32.3417 35.4487 30.8251C35.9543 30.164 36.5473 29.639 37.2279 29.2501C37.9084 28.8612 38.6181 28.6667 39.357 28.6667H46.9987C48.3209 28.6667 49.4293 29.114 50.3237 30.0084C51.2181 30.9029 51.6654 32.0112 51.6654 33.3334V42.6667H35.332V37.3584C33.9709 38.3306 32.5029 39.0695 30.9279 39.5751C29.3529 40.0806 27.7098 40.3334 25.9987 40.3334C24.3265 40.3334 22.6931 40.0709 21.0987 39.5459C19.5043 39.0209 18.0265 38.2723 16.6654 37.3001V42.6667H0.332031ZM7.33203 26.3334C5.38759 26.3334 3.73481 25.6529 2.3737 24.2917C1.01259 22.9306 0.332031 21.2779 0.332031 19.3334C0.332031 17.3501 1.01259 15.6876 2.3737 14.3459C3.73481 13.0042 5.38759 12.3334 7.33203 12.3334C9.31536 12.3334 10.9779 13.0042 12.3195 14.3459C13.6612 15.6876 14.332 17.3501 14.332 19.3334C14.332 21.2779 13.6612 22.9306 12.3195 24.2917C10.9779 25.6529 9.31536 26.3334 7.33203 26.3334ZM44.6654 26.3334C42.7209 26.3334 41.0681 25.6529 39.707 24.2917C38.3459 22.9306 37.6654 21.2779 37.6654 19.3334C37.6654 17.3501 38.3459 15.6876 39.707 14.3459C41.0681 13.0042 42.7209 12.3334 44.6654 12.3334C46.6487 12.3334 48.3112 13.0042 49.6529 14.3459C50.9945 15.6876 51.6654 17.3501 51.6654 19.3334C51.6654 21.2779 50.9945 22.9306 49.6529 24.2917C48.3112 25.6529 46.6487 26.3334 44.6654 26.3334Z" fill="#1A73E8"/>
</svg>
