<svg width="56" height="56" viewBox="0 0 56 56" fill="none" xmlns="http://www.w3.org/2000/svg">
<path d="M27.9987 21.0001L19.832 12.8334L27.9987 4.66675L36.1654 12.8334L27.9987 21.0001ZM2.33203 46.6667V37.3334C2.33203 36.0112 2.78898 34.9029 3.70286 34.0084C4.61675 33.114 5.71536 32.6667 6.9987 32.6667H14.6404C15.4181 32.6667 16.157 32.8612 16.857 33.2501C17.557 33.639 18.1209 34.164 18.5487 34.8251C19.6765 36.3417 21.0668 37.5279 22.7195 38.3834C24.3723 39.239 26.132 39.6667 27.9987 39.6667C29.9043 39.6667 31.6834 39.239 33.3362 38.3834C34.989 37.5279 36.3598 36.3417 37.4487 34.8251C37.9543 34.164 38.5473 33.639 39.2279 33.2501C39.9084 32.8612 40.6181 32.6667 41.357 32.6667H48.9987C50.3209 32.6667 51.4293 33.114 52.3237 34.0084C53.2181 34.9029 53.6654 36.0112 53.6654 37.3334V46.6667H37.332V41.3584C35.9709 42.3306 34.5029 43.0695 32.9279 43.5751C31.3529 44.0806 29.7098 44.3334 27.9987 44.3334C26.3265 44.3334 24.6931 44.0709 23.0987 43.5459C21.5043 43.0209 20.0265 42.2723 18.6654 41.3001V46.6667H2.33203ZM9.33203 30.3334C7.38759 30.3334 5.73481 29.6529 4.3737 28.2917C3.01259 26.9306 2.33203 25.2779 2.33203 23.3334C2.33203 21.3501 3.01259 19.6876 4.3737 18.3459C5.73481 17.0042 7.38759 16.3334 9.33203 16.3334C11.3154 16.3334 12.9779 17.0042 14.3195 18.3459C15.6612 19.6876 16.332 21.3501 16.332 23.3334C16.332 25.2779 15.6612 26.9306 14.3195 28.2917C12.9779 29.6529 11.3154 30.3334 9.33203 30.3334ZM46.6654 30.3334C44.7209 30.3334 43.0681 29.6529 41.707 28.2917C40.3459 26.9306 39.6654 25.2779 39.6654 23.3334C39.6654 21.3501 40.3459 19.6876 41.707 18.3459C43.0681 17.0042 44.7209 16.3334 46.6654 16.3334C48.6487 16.3334 50.3112 17.0042 51.6529 18.3459C52.9945 19.6876 53.6654 21.3501 53.6654 23.3334C53.6654 25.2779 52.9945 26.9306 51.6529 28.2917C50.3112 29.6529 48.6487 30.3334 46.6654 30.3334Z" fill="#E3E3E3"/>
</svg>
