<svg width="94" height="39" viewBox="0 0 94 39" fill="none" xmlns="http://www.w3.org/2000/svg">
<path d="M19.2131 0.733643H9.36153V23.3625C9.36153 26.1834 8.73271 28.0699 7.47507 29.0481C6.4445 29.7904 4.51437 30.166 1.67594 30.166H0.470703V38.5677H5.28293C7.3528 38.5677 9.19559 38.3232 10.8113 37.8428C16.4183 36.1572 19.2218 31.5197 19.2218 23.9564V0.733643H19.2131Z" fill="white"/>
<path d="M61.51 0.768577L52.165 37.7991L52.1563 37.8341H42.5842L42.5668 37.7991L33.8593 15.3887L28.1825 37.7991H18.4707L20.427 30.0786L20.7589 28.7686L27.8681 0.733643H37.9292L37.938 0.768577L46.1912 23.6594L51.9467 0.768577H61.51Z" fill="white"/>
<path d="M87.0131 26.1834C85.1004 28.6463 82.5502 29.8777 79.3712 29.8777C76.3843 29.8777 73.9738 28.8734 72.1485 26.8646C70.3144 24.8559 69.3974 22.3319 69.3974 19.2838C69.3974 16.2707 70.3144 13.7555 72.1485 11.7293C73.9825 9.70306 76.393 8.68996 79.3712 8.68996C82.3843 8.68996 84.9345 9.84279 87.0131 12.1397L93.3886 5.72926C90.9345 3.27511 88.0873 1.60699 84.8472 0.724891C83.0568 0.244541 81.1441 0 79.1092 0C77.048 0 75.1179 0.244541 73.3188 0.724891C70.1921 1.56332 67.4498 3.13537 65.1004 5.43231C61.3886 9.05677 59.5371 13.6769 59.5371 19.2751C59.5371 24.8472 61.3974 29.4498 65.1266 33.0917C67.4934 35.4061 70.2358 36.9869 73.3537 37.8253C75.1441 38.3144 77.0655 38.5502 79.1092 38.5502C81.1441 38.5502 83.0568 38.3057 84.8384 37.8253C88.1485 36.9258 91.048 35.1965 93.5284 32.6288L87.0131 26.1834Z" fill="white"/>
</svg>
