<svg width="50" height="49" viewBox="0 0 50 49" fill="none" xmlns="http://www.w3.org/2000/svg">
<path d="M35.334 26.3332L25.6507 16.8832C24.4451 15.7165 23.4243 14.4234 22.5882 13.004C21.752 11.5846 21.334 10.0387 21.334 8.3665C21.334 6.22761 22.0826 4.40956 23.5798 2.91234C25.077 1.41512 26.8951 0.666504 29.034 0.666504C30.2784 0.666504 31.4451 0.929004 32.534 1.454C33.6229 1.979 34.5562 2.68873 35.334 3.58317C36.1118 2.68873 37.0451 1.979 38.134 1.454C39.2229 0.929004 40.3895 0.666504 41.634 0.666504C43.7729 0.666504 45.5909 1.41512 47.0882 2.91234C48.5854 4.40956 49.334 6.22761 49.334 8.3665C49.334 10.0387 48.9257 11.5846 48.109 13.004C47.2923 14.4234 46.2812 15.7165 45.0757 16.8832L35.334 26.3332ZM35.334 19.7998L41.6923 13.5582C42.4312 12.8193 43.1118 12.0318 43.734 11.1957C44.3562 10.3596 44.6673 9.4165 44.6673 8.3665C44.6673 7.51095 44.3757 6.7915 43.7923 6.20817C43.209 5.62484 42.4895 5.33317 41.634 5.33317C41.0895 5.33317 40.5743 5.44011 40.0882 5.654C39.602 5.86789 39.184 6.18873 38.834 6.6165L35.334 10.8165L31.834 6.6165C31.484 6.18873 31.0659 5.86789 30.5798 5.654C30.0937 5.44011 29.5784 5.33317 29.034 5.33317C28.1784 5.33317 27.459 5.62484 26.8757 6.20817C26.2923 6.7915 26.0007 7.51095 26.0007 8.3665C26.0007 9.4165 26.3118 10.3596 26.934 11.1957C27.5562 12.0318 28.2368 12.8193 28.9757 13.5582L35.334 19.7998ZM14.334 39.1665L30.5507 43.5998L44.434 39.2832C44.2395 38.9332 43.9576 38.6318 43.5882 38.379C43.2187 38.1262 42.8007 37.9998 42.334 37.9998H30.5507C29.5007 37.9998 28.6645 37.9609 28.0423 37.8832C27.4201 37.8054 26.7784 37.6498 26.1173 37.4165L20.6923 35.6082L21.9757 31.0582L26.7007 32.6332C27.3618 32.8276 28.1395 32.9832 29.034 33.0998C29.9284 33.2165 31.2507 33.2943 33.0007 33.3332C33.0007 32.9054 32.8743 32.4971 32.6215 32.1082C32.3687 31.7193 32.0673 31.4665 31.7173 31.3498L18.0673 26.3332H14.334V39.1665ZM0.333984 47.3332V21.6665H18.0673C18.3395 21.6665 18.6118 21.6957 18.884 21.754C19.1562 21.8123 19.409 21.8804 19.6423 21.9582L33.3507 27.0332C34.634 27.4998 35.6743 28.3165 36.4715 29.4832C37.2687 30.6498 37.6673 31.9332 37.6673 33.3332H42.334C44.2784 33.3332 45.9312 33.9748 47.2923 35.2582C48.6534 36.5415 49.334 38.2332 49.334 40.3332V42.6665L30.6673 48.4998L14.334 43.9498V47.3332H0.333984ZM5.00065 42.6665H9.66732V26.3332H5.00065V42.6665Z" fill="#222836"/>
</svg>
