<svg width="50" height="49" viewBox="0 0 50 49" fill="none" xmlns="http://www.w3.org/2000/svg">
<path d="M35.334 26.3334L25.6507 16.8834C24.4451 15.7167 23.4243 14.4237 22.5882 13.0042C21.752 11.5848 21.334 10.039 21.334 8.36675C21.334 6.22786 22.0826 4.4098 23.5798 2.91258C25.077 1.41536 26.8951 0.666748 29.034 0.666748C30.2784 0.666748 31.4451 0.929248 32.534 1.45425C33.6229 1.97925 34.5562 2.68897 35.334 3.58341C36.1118 2.68897 37.0451 1.97925 38.134 1.45425C39.2229 0.929248 40.3895 0.666748 41.634 0.666748C43.7729 0.666748 45.5909 1.41536 47.0882 2.91258C48.5854 4.4098 49.334 6.22786 49.334 8.36675C49.334 10.039 48.9257 11.5848 48.109 13.0042C47.2923 14.4237 46.2812 15.7167 45.0757 16.8834L35.334 26.3334ZM35.334 19.8001L41.6923 13.5584C42.4312 12.8195 43.1118 12.032 43.734 11.1959C44.3562 10.3598 44.6673 9.41675 44.6673 8.36675C44.6673 7.51119 44.3757 6.79175 43.7923 6.20841C43.209 5.62508 42.4895 5.33341 41.634 5.33341C41.0895 5.33341 40.5743 5.44036 40.0882 5.65425C39.602 5.86814 39.184 6.18897 38.834 6.61675L35.334 10.8167L31.834 6.61675C31.484 6.18897 31.0659 5.86814 30.5798 5.65425C30.0937 5.44036 29.5784 5.33341 29.034 5.33341C28.1784 5.33341 27.459 5.62508 26.8757 6.20841C26.2923 6.79175 26.0007 7.51119 26.0007 8.36675C26.0007 9.41675 26.3118 10.3598 26.934 11.1959C27.5562 12.032 28.2368 12.8195 28.9757 13.5584L35.334 19.8001ZM14.334 39.1667L30.5507 43.6001L44.434 39.2834C44.2395 38.9334 43.9576 38.632 43.5882 38.3792C43.2187 38.1265 42.8007 38.0001 42.334 38.0001H30.5507C29.5007 38.0001 28.6645 37.9612 28.0423 37.8834C27.4201 37.8056 26.7784 37.6501 26.1173 37.4167L20.6923 35.6084L21.9757 31.0584L26.7007 32.6334C27.3618 32.8279 28.1395 32.9834 29.034 33.1001C29.9284 33.2167 31.2507 33.2945 33.0007 33.3334C33.0007 32.9056 32.8743 32.4973 32.6215 32.1084C32.3687 31.7195 32.0673 31.4667 31.7173 31.3501L18.0673 26.3334H14.334V39.1667ZM0.333984 47.3334V21.6667H18.0673C18.3395 21.6667 18.6118 21.6959 18.884 21.7542C19.1562 21.8126 19.409 21.8806 19.6423 21.9584L33.3507 27.0334C34.634 27.5001 35.6743 28.3167 36.4715 29.4834C37.2687 30.6501 37.6673 31.9334 37.6673 33.3334H42.334C44.2784 33.3334 45.9312 33.9751 47.2923 35.2584C48.6534 36.5417 49.334 38.2334 49.334 40.3334V42.6667L30.6673 48.5001L14.334 43.9501V47.3334H0.333984ZM5.00065 42.6667H9.66732V26.3334H5.00065V42.6667Z" fill="#1A73E8"/>
</svg>
