<svg width="38" height="48" viewBox="0 0 38 48" fill="none" xmlns="http://www.w3.org/2000/svg">
<path d="M19.0007 47.3334C13.5951 45.9723 9.1326 42.8709 5.61315 38.0292C2.09371 33.1876 0.333984 27.8112 0.333984 21.9001V7.66675L19.0007 0.666748L37.6673 7.66675V21.9001C37.6673 27.8112 35.9076 33.1876 32.3881 38.0292C28.8687 42.8709 24.4062 45.9723 19.0007 47.3334ZM19.0007 42.4334C22.7729 41.2667 25.9229 38.9626 28.4506 35.5209C30.9784 32.0792 32.4562 28.239 32.884 24.0001H19.0007V5.62508L5.00065 10.8751V22.9501C5.00065 23.2223 5.03954 23.5723 5.11732 24.0001H19.0007V42.4334Z" fill="#1A73E8"/>
</svg>
