<svg width="38" height="48" viewBox="0 0 38 48" fill="none" xmlns="http://www.w3.org/2000/svg">
<path d="M19.0007 47.3332C13.5951 45.9721 9.1326 42.8707 5.61315 38.029C2.09371 33.1873 0.333984 27.8109 0.333984 21.8998V7.6665L19.0007 0.666504L37.6673 7.6665V21.8998C37.6673 27.8109 35.9076 33.1873 32.3881 38.029C28.8687 42.8707 24.4062 45.9721 19.0007 47.3332ZM19.0007 42.4332C22.7729 41.2665 25.9229 38.9623 28.4506 35.5207C30.9784 32.079 32.4562 28.2387 32.884 23.9998H19.0007V5.62484L5.00065 10.8748V22.9498C5.00065 23.2221 5.03954 23.5721 5.11732 23.9998H19.0007V42.4332Z" fill="#222836"/>
</svg>
