<svg width="24" height="24" viewBox="0 0 24 24" fill="none" xmlns="http://www.w3.org/2000/svg">
<path d="M5 20C4.45 20 3.97917 19.8042 3.5875 19.4125C3.19583 19.0208 3 18.55 3 18V4C3 3.45 3.19583 2.97917 3.5875 2.5875C3.97917 2.19583 4.45 2 5 2H19C19.55 2 20.0208 2.19583 20.4125 2.5875C20.8042 2.97917 21 3.45 21 4V9.65C20.6833 9.5 20.3583 9.37917 20.025 9.2875C19.6917 9.19583 19.35 9.125 19 9.075V4H5V13H9.2C9.35 13.45 9.6 13.8417 9.95 14.175C10.3 14.5083 10.6917 14.7417 11.125 14.875C11.075 15.2083 11.0417 15.5458 11.025 15.8875C11.0083 16.2292 11.025 16.5667 11.075 16.9C10.475 16.7833 9.9125 16.5625 9.3875 16.2375C8.8625 15.9125 8.4 15.5 8 15H5V18H11.325C11.4417 18.3667 11.575 18.7167 11.725 19.05C11.875 19.3833 12.0583 19.7 12.275 20H5ZM17.025 21L16.725 19.5C16.525 19.4167 16.3375 19.3292 16.1625 19.2375C15.9875 19.1458 15.8083 19.0333 15.625 18.9L14.175 19.35L13.175 17.65L14.325 16.65C14.2917 16.45 14.275 16.2333 14.275 16C14.275 15.7667 14.2917 15.55 14.325 15.35L13.175 14.35L14.175 12.65L15.625 13.1C15.8083 12.9667 15.9875 12.8542 16.1625 12.7625C16.3375 12.6708 16.525 12.5833 16.725 12.5L17.025 11H19.025L19.325 12.5C19.525 12.5833 19.7125 12.6708 19.8875 12.7625C20.0625 12.8542 20.2417 12.9667 20.425 13.1L21.875 12.65L22.875 14.35L21.725 15.35C21.7583 15.55 21.775 15.7667 21.775 16C21.775 16.2333 21.7583 16.45 21.725 16.65L22.875 17.65L21.875 19.35L20.425 18.9C20.2417 19.0333 20.0625 19.1458 19.8875 19.2375C19.7125 19.3292 19.525 19.4167 19.325 19.5L19.025 21H17.025ZM18.025 18C18.575 18 19.0458 17.8042 19.4375 17.4125C19.8292 17.0208 20.025 16.55 20.025 16C20.025 15.45 19.8292 14.9792 19.4375 14.5875C19.0458 14.1958 18.575 14 18.025 14C17.475 14 17.0042 14.1958 16.6125 14.5875C16.2208 14.9792 16.025 15.45 16.025 16C16.025 16.55 16.2208 17.0208 16.6125 17.4125C17.0042 17.8042 17.475 18 18.025 18Z" fill="white"/>
</svg>
