<svg width="32" height="40" viewBox="0 0 32 40" fill="none" xmlns="http://www.w3.org/2000/svg">
<path d="M16.0012 26C24.1604 26 30.8932 32.1074 31.8774 40H0.125C1.10916 32.1074 7.84196 26 16.0012 26ZM12.375 30.559C9.50774 31.468 7.09274 33.4266 5.60402 36H16.0012L12.375 30.559ZM19.6282 30.5594L16.0012 36H26.3984C24.9098 33.427 22.4952 31.4684 19.6282 30.5594ZM28.0012 0V12C28.0012 18.6274 22.6286 24 16.0012 24C9.3738 24 4.00122 18.6274 4.00122 12V0H28.0012ZM8.00122 12C8.00122 16.4182 11.5829 20 16.0012 20C20.4196 20 24.0012 16.4182 24.0012 12H8.00122ZM24.0012 4H8.00122L8.001 8H24.001L24.0012 4Z" fill="#7CA3D6"/>
</svg>
