<svg width="20" height="20" viewBox="0 0 20 20" fill="none" xmlns="http://www.w3.org/2000/svg">
<path d="M5.25458 16.4944L5.97931 16.917C7.19006 17.623 8.56607 18 10.002 18C14.4203 18 18.002 14.4183 18.002 10C18.002 5.58172 14.4203 2 10.002 2C5.58367 2 2.00195 5.58172 2.00195 10C2.00195 11.4363 2.37918 12.8128 3.08563 14.0238L3.50801 14.7478L2.85452 17.1494L5.25458 16.4944ZM0.00613332 20L1.35809 15.0315C0.495913 13.5536 0.00195312 11.8345 0.00195312 10C0.00195312 4.47715 4.4791 0 10.002 0C15.5248 0 20.002 4.47715 20.002 10C20.002 15.5228 15.5248 20 10.002 20C8.16807 20 6.44948 19.5064 4.97183 18.6447L0.00613332 20ZM6.39329 5.30833C6.52717 5.29892 6.6615 5.29748 6.79556 5.30402C6.84972 5.30758 6.90362 5.31384 6.95756 5.32007C7.11682 5.33846 7.29195 5.43545 7.35083 5.56894C7.64915 6.24536 7.93861 6.92565 8.21917 7.60963C8.28107 7.76062 8.24377 7.95633 8.12597 8.1457C8.06617 8.2428 7.97225 8.379 7.86345 8.5183C7.75036 8.663 7.50696 8.9291 7.50696 8.9291C7.50696 8.9291 7.40835 9.0473 7.44552 9.1944C7.46 9.25 7.50618 9.331 7.54805 9.3991C7.57124 9.4368 7.59277 9.4705 7.60674 9.4938C7.86266 9.9211 8.20667 10.3543 8.62687 10.7616C8.74727 10.8783 8.86407 10.9974 8.98967 11.108C9.45797 11.5209 9.98777 11.8583 10.56 12.1082L10.5651 12.1105C10.6496 12.1469 10.693 12.1668 10.8167 12.2193C10.8791 12.2457 10.9429 12.2685 11.0084 12.2858C11.0321 12.292 11.0564 12.2955 11.0808 12.2972C11.2425 12.3069 11.336 12.2032 11.3759 12.1555C12.0994 11.279 12.1656 11.2218 12.1706 11.2222V11.2238C12.2657 11.1236 12.4152 11.0888 12.5486 11.097C12.6095 11.1007 12.6701 11.1124 12.7255 11.1377C13.2573 11.3803 14.1268 11.7587 14.1268 11.7587L14.7083 12.0201C14.8057 12.0671 14.8946 12.1778 14.8989 12.2854C14.9015 12.3523 14.9087 12.4603 14.8848 12.6579C14.8535 12.9166 14.7748 13.2281 14.6966 13.3913C14.6416 13.5058 14.5704 13.6074 14.4876 13.6934C14.3753 13.81 14.2919 13.8808 14.1569 13.9814C14.0747 14.0426 14.0321 14.0714 14.0321 14.0714C13.8932 14.159 13.8149 14.2028 13.6494 14.2909C13.392 14.428 13.1076 14.5068 12.8163 14.5218C12.6306 14.5313 12.4454 14.5447 12.2599 14.5347C12.2517 14.5342 11.6917 14.4482 11.6917 14.4482C10.2698 14.0742 8.95477 13.3736 7.85131 12.402C7.6257 12.2034 7.41647 11.9885 7.20291 11.7759C6.31385 10.8908 5.64079 9.9364 5.23266 9.0336C5.0314 8.5884 4.90396 8.1116 4.90195 7.62098C4.89826 7.01405 5.09696 6.4232 5.46666 5.94186C5.53954 5.84697 5.60871 5.74855 5.72806 5.63586C5.85445 5.51651 5.93489 5.45244 6.02154 5.40811C6.13704 5.34902 6.2639 5.31742 6.39329 5.30833Z" fill="#1A73E8"/>
</svg>
